<svg 
 xmlns="http://www.w3.org/2000/svg"
 xmlns:xlink="http://www.w3.org/1999/xlink"
 width="5.786cm" height="1.27cm">
<path fill-rule="evenodd"  fill="rgb(255, 198, 0)"
 d="M163.166,27.295 L163.166,34.687 L142.046,34.687 L142.046,1.087 L162.926,1.087 L162.926,8.479 L149.726,8.479 L149.726,14.047 L161.726,14.047 L161.726,21.343 L149.726,21.343 L149.726,27.295 L163.166,27.295 ZM123.566,27.871 C125.262,27.871 126.806,27.503 128.198,26.767 C129.590,26.031 130.638,25.023 131.342,23.743 L137.966,27.583 C136.526,29.983 134.526,31.879 131.966,33.271 C129.406,34.663 126.606,35.359 123.566,35.359 C118.542,35.359 114.374,33.687 111.062,30.343 C107.750,26.999 106.094,22.847 106.094,17.887 C106.094,12.927 107.750,8.775 111.062,5.431 C114.374,2.087 118.542,0.415 123.566,0.415 C126.574,0.415 129.358,1.111 131.918,2.503 C134.478,3.895 136.494,5.791 137.966,8.191 L131.342,12.031 C130.606,10.719 129.550,9.703 128.174,8.983 C126.798,8.263 125.262,7.903 123.566,7.903 C120.590,7.903 118.214,8.815 116.438,10.639 C114.662,12.463 113.774,14.879 113.774,17.887 C113.774,20.895 114.662,23.311 116.438,25.135 C118.214,26.959 120.590,27.871 123.566,27.871 ZM93.614,1.087 L101.294,1.087 L101.294,34.687 L93.614,34.687 L93.614,1.087 ZM69.519,34.687 L58.575,1.087 L66.975,1.087 L74.415,25.807 L81.855,1.087 L90.255,1.087 L79.311,34.687 L69.519,34.687 ZM35.535,1.087 L56.415,1.087 L56.415,8.479 L43.215,8.479 L43.215,14.047 L55.215,14.047 L55.215,21.343 L43.215,21.343 L43.215,27.295 L56.655,27.295 L56.655,34.687 L35.535,34.687 L35.535,1.087 ZM14.415,34.687 L0.975,34.687 L0.975,1.087 L14.415,1.087 C19.054,1.087 22.935,2.695 26.055,5.911 C29.175,9.127 30.735,13.119 30.735,17.887 C30.735,22.655 29.175,26.647 26.055,29.863 C22.935,33.079 19.054,34.687 14.415,34.687 ZM20.871,11.047 C19.223,9.335 17.071,8.479 14.415,8.479 L8.655,8.479 L8.655,27.295 L14.415,27.295 C17.071,27.295 19.223,26.439 20.871,24.727 C22.519,23.015 23.343,20.735 23.343,17.887 C23.343,15.039 22.519,12.759 20.871,11.047 Z"/>
</svg>